<svg xmlns="http://www.w3.org/2000/svg" x="0px" y="0px"
width="50" height="50"
viewBox="0 0 226 226"
style=" fill:#000000;"><g fill="none" fill-rule="nonzero" stroke="none" stroke-width="1" stroke-linecap="butt" stroke-linejoin="miter" stroke-miterlimit="10" stroke-dasharray="" stroke-dashoffset="0" font-family="none" font-weight="none" font-size="none" text-anchor="none" style="mix-blend-mode: normal"><path d="M0,226v-226h226v226z" fill="none"></path><g fill="#000000"><path d="M90.1175,58.61875c-2.36594,0.08828 -4.59063,1.11234 -6.215,2.825l-44.635,45.2l-6.215,6.35625l6.215,6.35625l44.635,45.2c3.51359,3.58422 9.26953,3.65484 12.85375,0.14125c3.58422,-3.51359 3.65484,-9.26953 0.14125,-12.85375l-29.52125,-29.80375h113.42375c3.26641,0.05297 6.28563,-1.65969 7.92766,-4.48469c1.65969,-2.80734 1.65969,-6.30328 0,-9.11062c-1.64203,-2.825 -4.66125,-4.53766 -7.92766,-4.48469h-113.42375l29.52125,-29.80375c2.71906,-2.63078 3.53125,-6.65641 2.01281,-10.13469c-1.51844,-3.46062 -5.01438,-5.61469 -8.79281,-5.40281z"></path></g></g></svg>